<svg width="20" height="20" viewBox="0 0 20 20" fill="none" xmlns="http://www.w3.org/2000/svg">
<mask id="mask0_6_210" style="mask-type:alpha" maskUnits="userSpaceOnUse" x="0" y="0" width="20" height="20">
<rect width="20" height="20" fill="currentColor"/>
</mask>
<g mask="url(#mask0_6_210)">
<path d="M5.00004 18.3334C4.54171 18.3334 4.14935 18.1702 3.82296 17.8438C3.49657 17.5174 3.33337 17.125 3.33337 16.6667V3.33335C3.33337 2.87502 3.49657 2.48266 3.82296 2.15627C4.14935 1.82988 4.54171 1.66669 5.00004 1.66669H10.9792C11.2014 1.66669 11.4132 1.70835 11.6146 1.79169C11.816 1.87502 11.9931 1.99308 12.1459 2.14585L16.1875 6.18752C16.3403 6.3403 16.4584 6.51738 16.5417 6.71877C16.625 6.92016 16.6667 7.13197 16.6667 7.35419V16.6667C16.6667 17.125 16.5035 17.5174 16.1771 17.8438C15.8507 18.1702 15.4584 18.3334 15 18.3334H5.00004ZM10.8334 6.66669V3.33335H5.00004V16.6667H15V7.50002H11.6667C11.4306 7.50002 11.2327 7.42016 11.073 7.26044C10.9132 7.10072 10.8334 6.9028 10.8334 6.66669Z" fill="#76777A"/>
</g>
</svg>
